<svg width="60" height="61" viewBox="0 0 60 61" fill="none" xmlns="http://www.w3.org/2000/svg">
<path d="M36.7 1.69999C35.8 2.79999 35 3.89999 35 4.19999C35 4.39999 37 5.59999 39.4 6.79999C44.4 9.29999 47.7 8.69999 50.4 4.79999C52.4 1.99999 51.5 1.39999 44 0.499991C39.3 -0.100009 38.2 0.0999908 36.7 1.69999Z" fill="#C5384B"/>
<path d="M21.2 5.7C17.4 8.2 17.1 8.6 18.7 9.7C21.4 11.8 24.7 11.2 27 8.3C31.1 3.1 27.6 1.6 21.2 5.7Z" fill="#C5384B"/>
<path d="M31.3002 5.2C27.6002 9.8 19.3002 32.5 20.3002 35.3C20.5002 36 21.3002 34.5 21.9002 32C23.8002 24.7 28.3002 12 29.6002 10.2C30.6002 8.9 31.0002 9.6 32.5002 14.6C34.2002 20.7 40.5002 35 41.4002 35C41.6002 35 40.1002 30.7 37.8002 25.4C35.3002 19.2 33.7002 13.8 33.5002 10.3C33.1002 4.2 32.8002 3.4 31.3002 5.2Z" fill="#C5384B"/>
<path d="M45.8001 30.8C43.6001 31.1 43.0001 31.7 43.0001 33.6C43.0001 36.4 40.6001 36.9 39.2001 34.4C38.5001 33.2 37.5001 32.9 35.2001 33.5C30.7001 34.4 29.6001 36.3 32.0001 38.5C34.4001 40.7 34.7001 47.1 32.6001 51.2C31.3001 53.6 31.4001 54 33.4001 55.9C36.7001 59 40.7001 60.1 46.4001 59.4C52.6001 58.5 57.3001 54.4 59.0001 48.2C61.8001 37.7 55.6001 29.6 45.8001 30.8Z" fill="#C5384B"/>
<path d="M5.10009 32.6C0.200091 36.1 -1.49991 46 1.70009 52.7C2.90009 55.2 4.60009 56.8 7.70009 58.2C15.1001 61.5 18.4001 61.6 23.3001 58.7C33.9001 52.5 35.5001 41.2 26.5001 36.5C23.7001 35 22.6001 34.8 22.3001 35.7C22.0001 36.4 20.9001 37 19.8001 37C18.3001 37 18.0001 36.5 18.5001 35.1C19.7001 31.2 9.80009 29.4 5.10009 32.6Z" fill="#C5384B"/>
</svg>
